<?xml version="1.0" encoding="UTF-8" standalone="no"?><!DOCTYPE svg PUBLIC "-//W3C//DTD SVG 1.1//EN" "http://www.w3.org/Graphics/SVG/1.1/DTD/svg11.dtd"><svg width="100%" height="100%" viewBox="0 0 64 64" version="1.1" xmlns="http://www.w3.org/2000/svg" xmlns:xlink="http://www.w3.org/1999/xlink" xml:space="preserve" xmlns:serif="http://www.serif.com/" style="fill-rule:evenodd;clip-rule:evenodd;stroke-linejoin:round;stroke-miterlimit:2;"><path d="M64,8.571l0,46.858c0,2.207 -1.792,4 -4,4l-56,-0c-2.208,-0 -4,-1.793 -4,-4l0,-46.858c0,-2.207 1.792,-4 4,-4l56,0c2.208,0 4,1.793 4,4Z" style="fill:#d9d9d9;"/><path d="M41,11.143l0,41.714c0,1.104 -0.896,2 -2,2l-32.429,0c-1.103,0 -2,-0.896 -2,-2l0,-41.714c0,-1.104 0.897,-2 2,-2l32.429,-0c1.104,-0 2,0.896 2,2Z" style="fill:#e9e9e9;"/><path d="M60,11.143l0,41.714c0,1.104 -0.896,2 -2,2l-10,0c-1.104,0 -2,-0.896 -2,-2l0,-41.714c0,-1.104 0.896,-2 2,-2l10,-0c1.104,-0 2,0.896 2,2Z" style="fill:#bfbfbf;"/><g><path d="M37.686,39.286l0,0.343c0,0.662 -0.538,1.2 -1.2,1.2l-27.401,-0c-0.662,-0 -1.2,-0.538 -1.2,-1.2l0,-0.343c0,-0.663 0.538,-1.2 1.2,-1.2l27.401,-0c0.662,-0 1.2,0.537 1.2,1.2Z" style="fill:#666;"/><path d="M37.686,45l0,0.343c0,0.662 -0.538,1.2 -1.2,1.2l-27.401,-0c-0.662,-0 -1.2,-0.538 -1.2,-1.2l0,-0.343c0,-0.662 0.538,-1.2 1.2,-1.2l27.401,-0c0.662,-0 1.2,0.538 1.2,1.2Z" style="fill:#666;"/><path d="M37.686,50.714l0,0.343c0,0.662 -0.538,1.2 -1.2,1.2l-27.401,0c-0.662,0 -1.2,-0.538 -1.2,-1.2l0,-0.343c0,-0.662 0.538,-1.2 1.2,-1.2l27.401,0c0.662,0 1.2,0.538 1.2,1.2Z" style="fill:#666;"/><g><path d="M20.4,36.295c0.156,0.064 0.335,0.025 0.449,-0.099c0.115,-0.124 0.14,-0.305 0.063,-0.456c-1.367,-2.651 -0.195,-5.231 0.69,-6.518c1.414,-2.056 2.396,-3.679 2.699,-4.445c0.034,-0.087 0.109,-0.151 0.199,-0.173c0.091,-0.021 0.187,0.004 0.256,0.066c1.977,1.987 3.368,7.782 0.682,11.414c-0.104,0.141 -0.099,0.335 0.014,0.47c0.113,0.135 0.303,0.175 0.461,0.097c6.499,-3.18 7.598,-8.365 5.426,-13.543c-0.065,-0.153 -0.215,-0.253 -0.382,-0.252c-0.167,0 -0.317,0.101 -0.381,0.255c-0.375,0.923 -0.976,1.65 -1.829,2.089c-0.021,0.011 -0.047,0.008 -0.067,-0.007c-0.019,-0.015 -0.027,-0.039 -0.022,-0.063c1.119,-4.824 -1.494,-9.483 -6.717,-13.303c-0.144,-0.104 -0.336,-0.112 -0.489,-0.02c-0.152,0.092 -0.234,0.267 -0.207,0.443c0.498,3.125 0.113,4.678 -4.056,9.226c-3.354,3.659 -4.411,11.679 3.211,14.819Z" style="fill:#fc0000;"/></g></g></svg>