<?xml version="1.0" encoding="UTF-8" standalone="no"?>
<!DOCTYPE svg PUBLIC "-//W3C//DTD SVG 1.1//EN" "http://www.w3.org/Graphics/SVG/1.1/DTD/svg11.dtd">
<svg width="100%" height="100%" viewBox="0 0 512 512" version="1.1" xmlns="http://www.w3.org/2000/svg" xmlns:xlink="http://www.w3.org/1999/xlink" xml:space="preserve" xmlns:serif="http://www.serif.com/" style="fill-rule:evenodd;clip-rule:evenodd;stroke-linejoin:round;stroke-miterlimit:2;">
    <g transform="matrix(1.09967,0,0,1.09967,-94.8175,-91.3679)">
        <path d="M152.029,380.976C154.254,381.98 156.868,381.51 158.604,379.793C160.34,378.076 160.839,375.467 159.86,373.231C147.084,344.915 159.526,317.781 169,304C183.927,282.289 194.514,264.931 198.41,255.969C198.95,254.71 200.073,253.796 201.415,253.522C202.758,253.247 204.149,253.648 205.14,254.594C225.752,276.906 239.927,336.354 214.408,376.103C213.021,378.233 213.253,381.032 214.971,382.904C216.689,384.777 219.457,385.248 221.698,384.049C288.209,349.261 300.209,294.533 278.477,239.471C277.585,237.232 275.453,235.734 273.045,235.653C270.637,235.573 268.41,236.925 267.37,239.099C263.213,247.791 257.092,254.711 248.766,259.119C248.449,259.282 248.065,259.247 247.783,259.027C247.501,258.808 247.372,258.445 247.453,258.097C259.375,205.671 231.619,155.026 175.882,113.178C173.798,111.621 170.984,111.46 168.737,112.772C166.49,114.083 165.246,116.611 165.577,119.192C170.208,151.521 164.642,169.296 120,218C83.304,258.035 71.375,345.098 152.029,380.976Z" style="fill:rgb(252,0,0);"/>
    </g>
    <g transform="matrix(1.13379,0,0,1.13379,-40.4853,-16.1088)">
        <g transform="matrix(1.59311,0,0,1.24272,-250.832,-148.148)">
            <path d="M460,161.356L460,170.644C460,176.912 456.031,182 451.142,182L308.858,182C303.969,182 300,176.912 300,170.644L300,161.356C300,155.088 303.969,150 308.858,150L451.142,150C456.031,150 460,155.088 460,161.356Z" style="fill:rgb(102,102,102);"/>
        </g>
        <g transform="matrix(1.59311,0,0,1.24272,-250.832,-69.7296)">
            <path d="M460,161.356L460,170.644C460,176.912 456.031,182 451.142,182L308.858,182C303.969,182 300,176.912 300,170.644L300,161.356C300,155.088 303.969,150 308.858,150L451.142,150C456.031,150 460,155.088 460,161.356Z" style="fill:rgb(102,102,102);"/>
        </g>
        <g transform="matrix(1.37812,0,0,1.24272,-151.937,8.68926)">
            <path d="M460,161.356L460,170.644C460,176.912 455.412,182 449.76,182L310.24,182C304.588,182 300,176.912 300,170.644L300,161.356C300,155.088 304.588,150 310.24,150L449.76,150C455.412,150 460,155.088 460,161.356Z" style="fill:rgb(102,102,102);"/>
        </g>
        <g transform="matrix(1.04738,0,0,1.1037,-269.685,185.576)">
            <path d="M460,162.786L460,169.214C460,176.271 453.963,182 446.526,182L313.474,182C306.037,182 300,176.271 300,169.214L300,162.786C300,155.729 306.037,150 313.474,150L446.526,150C453.963,150 460,155.729 460,162.786Z" style="fill:rgb(102,102,102);"/>
        </g>
        <g transform="matrix(1.04738,0,0,1.1037,-269.685,251.688)">
            <path d="M460,162.786L460,169.214C460,176.271 453.963,182 446.526,182L313.474,182C306.037,182 300,176.271 300,169.214L300,162.786C300,155.729 306.037,150 313.474,150L446.526,150C453.963,150 460,155.729 460,162.786Z" style="fill:rgb(102,102,102);"/>
        </g>
        <g transform="matrix(1.4994,0,0,5.59519,-207.724,-565.762)">
            <path d="M460,152.522L460,179.478C460,180.87 455.783,182 450.588,182L309.412,182C304.217,182 300,180.87 300,179.478L300,152.522C300,151.13 304.217,150 309.412,150L450.588,150C455.783,150 460,151.13 460,152.522Z" style="fill:rgb(102,102,102);"/>
        </g>
    </g>
</svg>
