<?xml version="1.0" encoding="UTF-8" standalone="no"?>
<!DOCTYPE svg PUBLIC "-//W3C//DTD SVG 1.1//EN" "http://www.w3.org/Graphics/SVG/1.1/DTD/svg11.dtd">
<svg width="100%" height="100%" viewBox="0 0 512 512" version="1.1" xmlns="http://www.w3.org/2000/svg" xmlns:xlink="http://www.w3.org/1999/xlink" xml:space="preserve" xmlns:serif="http://www.serif.com/" style="fill-rule:evenodd;clip-rule:evenodd;stroke-linejoin:round;stroke-miterlimit:2;">
    <g transform="matrix(1.45327,0,0,1.45327,-127.236,-104.944)">
        <path d="M155.654,382.528C157.382,383.244 159.373,382.806 160.642,381.433C161.911,380.059 162.19,378.04 161.34,376.374C146.164,346.93 159.177,318.288 169,304C184.698,281.167 195.596,263.149 198.96,254.648C199.341,253.684 200.17,252.968 201.179,252.731C202.188,252.494 203.249,252.766 204.02,253.46C225.964,275.521 241.409,339.864 211.594,380.186C210.432,381.753 210.495,383.912 211.747,385.409C212.999,386.905 215.113,387.349 216.861,386.482C289.023,351.174 301.222,293.611 277.112,236.119C276.389,234.415 274.715,233.311 272.864,233.318C271.013,233.324 269.346,234.44 268.635,236.149C264.47,246.395 257.804,254.474 248.333,259.345C248.092,259.466 247.802,259.437 247.59,259.27C247.378,259.103 247.282,258.828 247.344,258.565C259.765,205.005 230.75,153.279 172.765,110.869C171.166,109.706 169.026,109.617 167.335,110.642C165.645,111.667 164.736,113.607 165.029,115.562C170.564,150.255 166.284,167.504 120,218C82.764,258.625 71.029,347.673 155.654,382.528Z" style="fill:rgb(252,0,0);"/>
    </g>
    <g transform="matrix(1.13379,0,0,1.13379,-40.4853,-16.1088)">
        <g transform="matrix(1,0,0,1,22,4)">
            <path d="M460,164.112L460,167.888C460,175.677 453.677,182 445.888,182L314.112,182C306.323,182 300,175.677 300,167.888L300,164.112C300,156.323 306.323,150 314.112,150L445.888,150C453.677,150 460,156.323 460,164.112Z" style="fill:rgb(102,102,102);"/>
        </g>
        <g transform="matrix(1,0,0,1,22,4)">
            <path d="M460,250.112L460,253.888C460,261.677 453.677,268 445.888,268L314.112,268C306.323,268 300,261.677 300,253.888L300,250.112C300,242.323 306.323,236 314.112,236L445.888,236C453.677,236 460,242.323 460,250.112Z" style="fill:rgb(102,102,102);"/>
        </g>
        <g transform="matrix(1,0,0,1,22,4)">
            <path d="M460,336.112L460,339.888C460,347.677 453.677,354 445.888,354L314.112,354C306.323,354 300,347.677 300,339.888L300,336.112C300,328.323 306.323,322 314.112,322L445.888,322C453.677,322 460,328.323 460,336.112Z" style="fill:rgb(102,102,102);"/>
        </g>
    </g>
</svg>
