<?xml version="1.0" encoding="UTF-8" standalone="no"?><!DOCTYPE svg PUBLIC "-//W3C//DTD SVG 1.1//EN" "http://www.w3.org/Graphics/SVG/1.1/DTD/svg11.dtd"><svg width="100%" height="100%" viewBox="0 0 64 64" version="1.1" xmlns="http://www.w3.org/2000/svg" xmlns:xlink="http://www.w3.org/1999/xlink" xml:space="preserve" xmlns:serif="http://www.serif.com/" style="fill-rule:evenodd;clip-rule:evenodd;stroke-linejoin:round;stroke-miterlimit:2;"><path d="M64,8.571l0,46.858c0,2.207 -1.792,4 -4,4l-56,-0c-2.208,-0 -4,-1.793 -4,-4l0,-46.858c0,-2.207 1.792,-4 4,-4l56,0c2.208,0 4,1.793 4,4Z" style="fill:#d9d9d9;"/><path d="M38,11.143l0,41.714c0,1.104 -0.896,2 -2,2l-29.429,0c-1.103,0 -2,-0.896 -2,-2l0,-41.714c0,-1.104 0.897,-2 2,-2l29.429,-0c1.104,-0 2,0.896 2,2Z" style="fill:#bfbfbf;"/><path d="M60,11.143l0,41.714c0,1.104 -0.896,2 -2,2l-14.575,0c-1.104,0 -2,-0.896 -2,-2l-0,-41.714c-0,-1.104 0.896,-2 2,-2l14.575,-0c1.104,-0 2,0.896 2,2Z" style="fill:#e9e9e9;"/><path d="M56.712,36.2l0,0.343c0,0.662 -0.537,1.2 -1.2,1.2l-9.6,-0c-0.662,-0 -1.2,-0.538 -1.2,-1.2l0,-0.343c0,-0.662 0.538,-1.2 1.2,-1.2l9.6,0c0.663,0 1.2,0.538 1.2,1.2Z" style="fill:#666;"/><path d="M56.712,41.914l0,0.343c0,0.662 -0.537,1.2 -1.2,1.2l-9.6,0c-0.662,0 -1.2,-0.538 -1.2,-1.2l0,-0.343c0,-0.662 0.538,-1.2 1.2,-1.2l9.6,0c0.663,0 1.2,0.538 1.2,1.2Z" style="fill:#666;"/><path d="M56.712,47.629l0,0.342c0,0.663 -0.537,1.2 -1.2,1.2l-9.6,0c-0.662,0 -1.2,-0.537 -1.2,-1.2l0,-0.342c0,-0.663 0.538,-1.2 1.2,-1.2l9.6,-0c0.663,-0 1.2,0.537 1.2,1.2Z" style="fill:#666;"/><g><path d="M48.617,30.182c0.117,0.048 0.252,0.018 0.338,-0.075c0.086,-0.093 0.105,-0.23 0.048,-0.343c-1.029,-1.996 -0.147,-3.938 0.519,-4.906c1.064,-1.549 1.803,-2.77 2.031,-3.346c0.026,-0.066 0.082,-0.114 0.151,-0.13c0.068,-0.016 0.14,0.002 0.192,0.049c1.488,1.496 2.535,5.858 0.514,8.592c-0.079,0.106 -0.075,0.252 0.01,0.354c0.085,0.101 0.228,0.131 0.347,0.073c4.892,-2.394 5.719,-6.297 4.085,-10.195c-0.049,-0.115 -0.163,-0.19 -0.288,-0.19c-0.126,0.001 -0.239,0.077 -0.287,0.192c-0.282,0.695 -0.734,1.243 -1.376,1.573c-0.017,0.008 -0.036,0.006 -0.051,-0.005c-0.014,-0.011 -0.021,-0.03 -0.016,-0.048c0.842,-3.631 -1.125,-7.138 -5.057,-10.013c-0.108,-0.079 -0.253,-0.085 -0.368,-0.016c-0.114,0.07 -0.176,0.201 -0.156,0.334c0.375,2.352 0.085,3.521 -3.053,6.945c-2.525,2.754 -3.32,8.791 2.417,11.155Z" style="fill:#fc0000;"/></g></svg>