<?xml version="1.0" standalone="no"?>
<!DOCTYPE svg PUBLIC "-//W3C//DTD SVG 20010904//EN"
 "http://www.w3.org/TR/2001/REC-SVG-20010904/DTD/svg10.dtd">
<svg version="1.0" xmlns="http://www.w3.org/2000/svg"
 width="1280.000000pt" height="1204.000000pt" viewBox="0 0 1280.000000 1204.000000"
 preserveAspectRatio="xMidYMid meet">
<metadata>
Created by potrace 1.15, written by Peter Selinger 2001-2017
</metadata>
<g transform="translate(0.000000,1204.000000) scale(0.100000,-0.100000)"
fill="#000000" stroke="none">
<path d="M3145 12030 c-5 -8 5 -118 86 -935 16 -165 34 -356 40 -425 7 -69 16
-129 20 -135 6 -5 9 -2 9 8 0 10 13 138 30 285 100 907 130 1194 125 1202 -8
13 -302 13 -310 0z"/>
<path d="M9347 12028 c-5 -16 156 -1494 164 -1502 3 -4 9 31 13 76 4 46 25
265 46 488 22 223 52 523 66 667 14 145 23 267 19 273 -10 16 -302 13 -308 -2z"/>
<path d="M1461 11857 c-63 -34 -116 -66 -118 -72 -1 -5 79 -100 180 -211 100
-110 357 -395 571 -632 215 -237 392 -430 394 -427 3 3 -720 1167 -852 1372
-12 20 -29 33 -41 32 -11 0 -71 -28 -134 -62z"/>
<path d="M11178 11903 c-9 -10 -120 -184 -248 -388 -128 -203 -317 -503 -420
-665 -190 -300 -214 -340 -206 -340 4 0 1040 1135 1135 1242 l32 36 -124 66
c-68 36 -131 66 -139 66 -8 0 -22 -8 -30 -17z"/>
<path d="M234 10918 c-75 -115 -81 -130 -62 -145 7 -6 184 -85 393 -176 209
-91 511 -222 670 -293 679 -298 780 -342 784 -338 6 5 69 -34 -649 409 -355
219 -734 454 -842 522 -109 68 -205 123 -213 123 -8 0 -45 -46 -81 -102z"/>
<path d="M11627 10499 c-461 -287 -835 -524 -833 -526 3 -3 303 126 668 287
365 161 776 342 915 402 139 61 254 116 256 123 7 17 -135 234 -153 235 -8 0
-392 -235 -853 -521z"/>
<path d="M3886 10714 c-14 -14 -16 -79 -16 -573 0 -460 2 -561 14 -570 9 -8
120 -11 387 -9 l374 3 3 179 c1 112 7 185 13 193 10 11 319 13 1745 13 954 0
1735 -1 1736 -2 1 -2 4 -88 7 -193 l6 -190 380 0 380 0 3 570 c2 527 1 571
-15 583 -24 17 -723 18 -741 0 -8 -8 -12 -62 -12 -175 l0 -163 -26 -10 c-38
-15 -3443 -13 -3461 1 -10 9 -13 52 -13 179 0 144 -2 169 -16 174 -9 3 -177 6
-374 6 -313 0 -361 -2 -374 -16z"/>
<path d="M2682 10063 c-5 -10 -22 -74 -36 -143 -15 -69 -54 -243 -87 -387 -32
-145 -59 -270 -59 -278 0 -13 56 -15 455 -15 427 0 455 1 455 18 1 43 -114
798 -123 810 -7 9 -80 12 -303 12 -269 0 -294 -1 -302 -17z"/>
<path d="M9500 10054 c-6 -14 -10 -32 -10 -40 0 -8 -25 -181 -55 -385 -31
-203 -53 -374 -50 -379 4 -6 172 -10 456 -10 l449 0 0 22 c0 35 -171 792 -182
806 -8 9 -81 12 -304 12 l-294 0 -10 -26z"/>
<path d="M4804 9827 c-2 -7 -3 -69 -2 -138 l3 -124 1584 -3 c1050 -1 1588 1
1596 8 14 11 16 236 2 258 -12 18 -3175 18 -3183 -1z"/>
<path d="M12 9548 c-18 -18 -16 -252 2 -267 10 -8 69 -8 237 4 123 8 553 35
954 60 807 50 879 55 872 61 -5 5 -115 13 -1257 93 -393 28 -733 53 -756 55
-24 3 -46 0 -52 -6z"/>
<path d="M12640 9548 c-63 -5 -524 -38 -1024 -73 -500 -36 -911 -66 -913 -68
-4 -5 41 -8 572 -42 1170 -75 1508 -95 1516 -89 5 3 9 65 9 139 0 112 -2 134
-16 139 -9 3 -19 5 -22 5 -4 -1 -59 -6 -122 -11z"/>
<path d="M3920 9443 c0 -8 691 -184 718 -183 19 0 17 176 -2 183 -23 9 -716 8
-716 0z"/>
<path d="M4806 9431 c-14 -15 -16 -30 -10 -87 4 -44 12 -73 22 -81 23 -18
3152 -19 3170 -1 14 14 16 146 2 168 -8 13 -197 15 -1588 18 -1534 2 -1579 2
-1596 -17z"/>
<path d="M8156 9428 c-12 -18 -14 -40 -9 -96 3 -39 10 -72 16 -72 24 0 707
175 707 181 0 3 -157 7 -349 8 l-350 2 -15 -23z"/>
<path d="M2295 9106 c-139 -44 -333 -201 -410 -331 -62 -107 -58 151 -54
-3405 l4 -3235 -125 -5 -125 -5 0 -245 0 -245 114 -3 c64 -1 121 -8 128 -14
10 -8 13 -51 13 -169 l0 -159 28 -11 c16 -6 96 -9 202 -8 96 2 181 0 188 -4 9
-6 12 -142 12 -626 0 -466 3 -620 12 -629 9 -9 199 -12 793 -12 429 0 785 4
792 8 9 6 13 107 15 409 2 221 6 405 10 409 4 4 55 15 114 25 128 21 213 59
284 129 54 52 114 162 125 230 4 21 14 45 22 52 13 10 378 13 1947 14 1062 0
1940 -3 1952 -7 15 -5 25 -25 38 -73 18 -66 69 -161 109 -204 62 -67 189 -125
310 -142 39 -6 82 -13 95 -16 l22 -4 0 -403 c0 -300 3 -406 12 -415 17 -17
1569 -17 1586 0 9 9 12 161 12 623 0 366 4 616 10 625 8 13 39 14 197 12 151
-3 192 -1 207 11 18 13 19 26 17 169 -2 121 1 157 11 166 9 7 62 12 129 14
l114 3 0 245 0 245 -115 3 c-94 2 -117 6 -127 19 -10 13 -13 682 -13 3262 0
2207 -3 3258 -10 3283 -30 106 -211 306 -332 366 -138 68 239 62 -4228 61
-3238 0 -4053 -3 -4085 -13z m3799 -632 c14 -14 16 -135 16 -1185 0 -788 -3
-1177 -10 -1190 -11 -19 -43 -19 -1970 -19 -1767 0 -1960 2 -1974 16 -14 14
-16 135 -16 1189 0 1054 2 1175 16 1189 14 14 206 16 1969 16 1763 0 1955 -2
1969 -16z m4540 0 c14 -14 16 -136 16 -1193 0 -902 -3 -1180 -12 -1189 -17
-17 -3919 -17 -3936 0 -17 17 -17 2369 0 2386 9 9 459 12 1964 12 1762 0 1954
-2 1968 -16z m-7114 -5270 c7 -7 9 -153 8 -455 l-3 -444 -710 0 -710 0 -3 445
c-2 369 0 447 12 455 19 14 1391 14 1406 -1z m5350 8 l35 -8 0 -144 0 -145
-2500 -3 c-2342 -2 -2501 -1 -2512 15 -9 11 -13 58 -13 144 0 111 2 129 17
138 21 11 4920 15 4973 3z m1808 -1 c10 -1 12 -95 10 -453 l-3 -453 -710 0
-710 0 -3 445 c-2 369 0 447 12 455 9 7 251 10 702 9 379 -1 695 -2 702 -3z
m-1773 -761 l0 -145 -2510 0 -2510 0 -3 125 c-1 69 0 135 3 148 l5 22 2508 -2
2507 -3 0 -145z m2200 -595 l0 -160 -879 -3 -880 -2 -68 45 c-128 86 -217 115
-358 115 -146 0 -245 -32 -369 -121 l-54 -39 -2097 0 -2097 0 -77 51 c-42 27
-107 62 -144 77 -61 24 -80 26 -202 27 -164 0 -227 -18 -352 -101 l-82 -54
-867 0 c-477 0 -874 3 -883 6 -14 5 -16 29 -16 158 0 84 3 156 7 159 3 4 2124
6 4712 5 l4706 -3 0 -160z m-7059 -135 c180 -46 267 -155 281 -352 21 -285
-137 -438 -452 -438 -221 0 -346 64 -414 210 -21 46 -26 73 -29 166 -9 241 79
368 286 418 87 22 235 20 328 -4z m5076 -9 c93 -30 158 -84 197 -163 81 -165
59 -384 -49 -501 -71 -78 -188 -117 -350 -117 -217 0 -362 71 -422 206 -30 70
-43 195 -28 283 30 178 131 278 317 311 83 15 260 5 335 -19z"/>
<path d="M690 8471 c-16 -30 -13 -2359 3 -2387 7 -12 239 -203 517 -424 l505
-402 3 117 c2 98 0 121 -14 136 -9 10 -171 139 -360 285 -189 147 -344 271
-344 276 0 4 89 9 198 10 l197 3 3 1137 2 1138 23 5 c12 3 83 6 157 8 l135 2
3 49 c2 32 -1 52 -10 57 -7 5 -237 9 -510 9 -482 0 -498 -1 -508 -19z"/>
<path d="M11082 8481 c-9 -5 -12 -25 -10 -57 l3 -49 149 -3 c90 -1 155 -7 163
-14 11 -8 13 -216 13 -1133 0 -920 2 -1125 13 -1134 9 -6 85 -12 208 -13 l194
-3 -369 -284 c-202 -156 -370 -289 -372 -296 -3 -6 -3 -62 -2 -125 l3 -113
401 319 c221 175 440 349 487 386 55 43 95 83 114 115 l28 48 3 1169 c2 863
-1 1172 -9 1182 -9 12 -99 14 -508 14 -273 0 -502 -4 -509 -9z"/>
</g>
</svg>
